<mxfile host="65bd71144e">
    <diagram id="PPKhUXokkGQYo-qvQ9Q4" name="Page-1">
        <mxGraphModel dx="496" dy="241" grid="1" gridSize="10" guides="1" tooltips="1" connect="1" arrows="1" fold="1" page="1" pageScale="1" pageWidth="850" pageHeight="1100" math="0" shadow="0">
            <root>
                <mxCell id="0"/>
                <mxCell id="1" parent="0"/>
                <mxCell id="7" value="&lt;font color=&quot;#000000&quot;&gt;Bookstore System&lt;/font&gt;" style="rounded=0;whiteSpace=wrap;html=1;verticalAlign=top;fillColor=#f5f5f5;fontColor=#333333;strokeColor=#666666;" vertex="1" parent="1">
                    <mxGeometry x="230" y="30" width="345" height="340" as="geometry"/>
                </mxCell>
                <mxCell id="23" style="edgeStyle=none;html=1;entryX=1;entryY=0.5;entryDx=0;entryDy=0;strokeColor=#000000;fontColor=#FFFFFF;" edge="1" parent="1" source="3" target="22">
                    <mxGeometry relative="1" as="geometry"/>
                </mxCell>
                <mxCell id="28" style="edgeStyle=none;html=1;entryX=1;entryY=0.5;entryDx=0;entryDy=0;strokeColor=#000000;fontColor=#FFFFFF;" edge="1" parent="1" source="3" target="24">
                    <mxGeometry relative="1" as="geometry"/>
                </mxCell>
                <mxCell id="31" style="edgeStyle=none;html=1;entryX=1;entryY=0.5;entryDx=0;entryDy=0;strokeColor=#000000;fontColor=#FFFFFF;" edge="1" parent="1" source="3" target="25">
                    <mxGeometry relative="1" as="geometry"/>
                </mxCell>
                <mxCell id="32" style="edgeStyle=none;html=1;entryX=1;entryY=0.5;entryDx=0;entryDy=0;strokeColor=#000000;fontColor=#FFFFFF;" edge="1" parent="1" source="3" target="26">
                    <mxGeometry relative="1" as="geometry"/>
                </mxCell>
                <mxCell id="3" value="Staff" style="shape=umlActor;verticalLabelPosition=bottom;verticalAlign=top;html=1;outlineConnect=0;" vertex="1" parent="1">
                    <mxGeometry x="590" y="150" width="30" height="60" as="geometry"/>
                </mxCell>
                <mxCell id="8" value="Log In" style="ellipse;whiteSpace=wrap;html=1;fontColor=#333333;fillColor=#f5f5f5;strokeColor=#666666;" vertex="1" parent="1">
                    <mxGeometry x="290" y="110" width="100" height="40" as="geometry"/>
                </mxCell>
                <mxCell id="9" value="Sign Up" style="ellipse;whiteSpace=wrap;html=1;fontColor=#333333;fillColor=#f5f5f5;strokeColor=#666666;" vertex="1" parent="1">
                    <mxGeometry x="290" y="50" width="100" height="40" as="geometry"/>
                </mxCell>
                <mxCell id="10" value="Edit Profile" style="ellipse;whiteSpace=wrap;html=1;fontColor=#333333;fillColor=#f5f5f5;strokeColor=#666666;" vertex="1" parent="1">
                    <mxGeometry x="290" y="170" width="100" height="40" as="geometry"/>
                </mxCell>
                <mxCell id="11" value="Buy Book" style="ellipse;whiteSpace=wrap;html=1;fontColor=#333333;fillColor=#f5f5f5;strokeColor=#666666;" vertex="1" parent="1">
                    <mxGeometry x="290" y="220" width="100" height="40" as="geometry"/>
                </mxCell>
                <mxCell id="12" value="Search for Book" style="ellipse;whiteSpace=wrap;html=1;fontColor=#333333;fillColor=#f5f5f5;strokeColor=#666666;" vertex="1" parent="1">
                    <mxGeometry x="290" y="270" width="100" height="40" as="geometry"/>
                </mxCell>
                <mxCell id="13" value="Add To Wishlist" style="ellipse;whiteSpace=wrap;html=1;fontColor=#333333;fillColor=#f5f5f5;strokeColor=#666666;" vertex="1" parent="1">
                    <mxGeometry x="290" y="320" width="100" height="40" as="geometry"/>
                </mxCell>
                <mxCell id="15" style="edgeStyle=none;html=1;entryX=0;entryY=0.5;entryDx=0;entryDy=0;fontColor=#FFFFFF;strokeColor=#000000;" edge="1" parent="1" source="2" target="9">
                    <mxGeometry relative="1" as="geometry"/>
                </mxCell>
                <mxCell id="19" style="edgeStyle=none;html=1;entryX=0;entryY=0.5;entryDx=0;entryDy=0;strokeColor=#000000;fontColor=#FFFFFF;" edge="1" parent="1" source="2" target="11">
                    <mxGeometry relative="1" as="geometry"/>
                </mxCell>
                <mxCell id="20" style="edgeStyle=none;html=1;entryX=0;entryY=0.5;entryDx=0;entryDy=0;strokeColor=#000000;fontColor=#FFFFFF;" edge="1" parent="1" source="2" target="12">
                    <mxGeometry relative="1" as="geometry"/>
                </mxCell>
                <mxCell id="21" style="edgeStyle=none;html=1;entryX=0;entryY=0.5;entryDx=0;entryDy=0;strokeColor=#000000;fontColor=#FFFFFF;" edge="1" parent="1" source="2" target="13">
                    <mxGeometry relative="1" as="geometry"/>
                </mxCell>
                <mxCell id="2" value="Customer" style="shape=umlActor;verticalLabelPosition=bottom;verticalAlign=top;html=1;outlineConnect=0;" vertex="1" parent="1">
                    <mxGeometry x="180" y="150" width="30" height="60" as="geometry"/>
                </mxCell>
                <mxCell id="16" style="edgeStyle=none;html=1;entryX=0;entryY=0.5;entryDx=0;entryDy=0;strokeColor=#000000;fontColor=#FFFFFF;" edge="1" parent="1" source="2" target="8">
                    <mxGeometry relative="1" as="geometry"/>
                </mxCell>
                <mxCell id="17" style="edgeStyle=none;html=1;entryX=0;entryY=0.5;entryDx=0;entryDy=0;strokeColor=#000000;fontColor=#FFFFFF;exitX=1;exitY=0.3333333333333333;exitDx=0;exitDy=0;exitPerimeter=0;" edge="1" parent="1" source="2" target="10">
                    <mxGeometry relative="1" as="geometry">
                        <mxPoint x="220" y="180" as="sourcePoint"/>
                    </mxGeometry>
                </mxCell>
                <mxCell id="22" value="Log In" style="ellipse;whiteSpace=wrap;html=1;fontColor=#333333;fillColor=#f5f5f5;strokeColor=#666666;" vertex="1" parent="1">
                    <mxGeometry x="425" y="70" width="100" height="40" as="geometry"/>
                </mxCell>
                <mxCell id="24" value="Manage Book" style="ellipse;whiteSpace=wrap;html=1;fontColor=#333333;fillColor=#f5f5f5;strokeColor=#666666;" vertex="1" parent="1">
                    <mxGeometry x="425" y="120" width="100" height="40" as="geometry"/>
                </mxCell>
                <mxCell id="25" value="View Reports" style="ellipse;whiteSpace=wrap;html=1;fontColor=#333333;fillColor=#f5f5f5;strokeColor=#666666;" vertex="1" parent="1">
                    <mxGeometry x="425" y="170" width="100" height="40" as="geometry"/>
                </mxCell>
                <mxCell id="26" value="Manage Users" style="ellipse;whiteSpace=wrap;html=1;fontColor=#333333;fillColor=#f5f5f5;strokeColor=#666666;" vertex="1" parent="1">
                    <mxGeometry x="425" y="220" width="100" height="40" as="geometry"/>
                </mxCell>
            </root>
        </mxGraphModel>
    </diagram>
</mxfile>